<?xml version="1.0" standalone="no"?>
<!DOCTYPE svg PUBLIC "-//W3C//DTD SVG 20010904//EN"
 "http://www.w3.org/TR/2001/REC-SVG-20010904/DTD/svg10.dtd">
<svg version="1.0" xmlns="http://www.w3.org/2000/svg"
 width="800.000000pt" height="800.000000pt" viewBox="0 0 800.000000 800.000000"
 preserveAspectRatio="xMidYMid meet">
<metadata>
Created by potrace 1.14, written by Peter Selinger 2001-2017
</metadata>
<g transform="translate(0.000000,800.000000) scale(0.100000,-0.100000)"
fill="#000000" stroke="none">
<path d="M0 4000 l0 -4000 4000 0 4000 0 0 4000 0 4000 -4000 0 -4000 0 0
-4000z m7170 1320 c204 -13 289 -27 430 -67 68 -20 90 -33 90 -54 0 -19 -122
-402 -147 -461 -14 -32 -18 -36 -35 -27 -29 16 -164 58 -248 77 -98 22 -519
25 -590 3 -79 -23 -118 -43 -150 -74 -91 -89 -82 -226 22 -310 40 -32 205
-117 228 -117 6 0 18 -4 28 -10 9 -5 33 -15 52 -23 19 -8 55 -23 80 -33 66
-27 230 -113 270 -142 63 -46 156 -150 188 -211 61 -113 76 -180 75 -336 0
-174 -18 -255 -87 -394 -110 -222 -347 -378 -706 -461 -102 -24 -185 -31 -410
-37 -273 -6 -397 8 -689 79 -178 43 -186 48 -162 110 5 13 21 64 36 113 15 50
38 122 50 160 12 39 27 88 33 110 6 22 17 48 24 57 12 16 17 15 68 -9 56 -26
75 -33 170 -60 181 -52 488 -65 662 -29 70 15 160 52 208 86 70 50 107 179 81
278 -22 81 -148 170 -351 247 -403 154 -549 271 -626 500 -25 75 -23 295 4
395 82 308 290 496 659 595 180 49 442 65 743 45z m-5509 -80 c10 -25 29 -85
43 -135 15 -49 33 -110 40 -135 8 -25 19 -65 26 -90 7 -25 18 -63 25 -85 7
-22 25 -80 39 -130 15 -49 30 -103 36 -120 5 -16 27 -93 50 -170 22 -77 46
-160 54 -185 38 -125 69 -230 82 -275 22 -75 59 -200 88 -296 14 -47 26 -90
26 -97 0 -6 4 -13 9 -17 14 -8 32 30 41 89 9 57 42 227 64 326 8 36 20 92 26
125 6 33 16 80 22 105 5 25 14 68 19 95 4 28 16 82 24 120 9 39 20 93 26 120
5 28 16 84 24 125 8 41 20 101 25 132 6 32 15 69 20 84 6 14 10 37 10 51 0 15
4 40 9 57 9 31 26 110 42 201 19 107 27 138 40 146 8 5 150 9 315 9 229 0 304
-3 312 -12 11 -14 5 -59 -23 -183 -8 -38 -18 -83 -21 -100 -3 -16 -11 -57 -19
-90 -7 -33 -18 -82 -24 -110 -5 -27 -17 -86 -26 -130 -9 -44 -21 -96 -25 -115
-5 -19 -16 -71 -25 -115 -9 -44 -23 -111 -32 -150 -8 -38 -19 -92 -25 -120 -5
-27 -16 -77 -23 -110 -7 -33 -18 -82 -24 -110 -5 -27 -17 -86 -26 -130 -9 -44
-21 -96 -25 -115 -5 -19 -16 -71 -25 -115 -9 -44 -23 -111 -32 -150 -8 -38
-19 -92 -25 -120 -5 -27 -16 -77 -23 -110 -7 -33 -18 -82 -24 -110 -5 -27 -17
-81 -26 -120 -19 -88 -31 -144 -45 -217 -6 -31 -17 -61 -24 -67 -9 -8 -141
-10 -432 -9 l-418 3 -12 25 c-7 14 -24 66 -39 115 -15 50 -33 108 -40 130 -7
22 -18 60 -25 85 -7 25 -18 63 -25 85 -8 22 -25 81 -40 130 -15 50 -38 126
-51 170 -13 44 -32 105 -41 135 -9 30 -26 87 -38 125 -12 39 -30 97 -39 130
-10 33 -21 71 -26 85 -4 14 -16 52 -25 85 -10 33 -29 94 -42 135 -26 86 -34
111 -58 195 -34 114 -53 167 -57 159 -6 -10 -29 -114 -48 -209 -6 -33 -18 -89
-25 -125 -8 -36 -19 -92 -26 -125 -6 -33 -17 -87 -24 -120 -7 -33 -21 -98 -30
-145 -17 -91 -26 -135 -49 -245 -8 -38 -22 -110 -31 -160 -9 -49 -21 -106 -25
-125 -9 -33 -44 -210 -60 -295 -20 -113 -33 -173 -44 -205 l-12 -35 -314 -3
c-187 -1 -318 2 -323 7 -6 6 -4 33 6 73 9 35 21 90 27 123 7 33 18 83 26 112
8 28 14 61 14 74 0 12 4 36 10 53 5 17 17 67 26 111 34 167 57 277 77 365 8
36 20 88 25 115 17 82 41 196 58 270 22 102 31 141 49 230 9 44 20 98 25 120
5 22 16 74 25 115 9 41 20 93 25 115 10 46 31 144 55 260 9 44 20 96 25 115 4
19 16 71 25 115 9 44 21 96 26 116 5 20 9 46 9 58 0 11 9 30 20 41 20 20 31
20 437 18 l417 -3 17 -45z m2493 -1 c0 -43 -13 -116 -36 -203 -5 -21 -13 -60
-18 -85 -7 -46 -41 -217 -59 -301 -31 -145 -41 -193 -56 -262 -9 -42 -14 -81
-10 -87 10 -17 814 -15 819 2 4 11 27 120 47 217 5 25 15 74 23 110 7 36 19
92 26 125 6 33 18 87 25 120 8 33 16 76 19 95 3 19 12 67 21 105 8 39 19 94
25 124 17 96 -3 91 366 91 241 0 325 -3 330 -12 10 -16 6 -76 -7 -119 -6 -19
-14 -56 -19 -84 -5 -27 -16 -84 -25 -125 -9 -41 -20 -95 -25 -120 -5 -25 -16
-81 -26 -125 -9 -44 -20 -98 -24 -120 -4 -22 -15 -74 -24 -115 -9 -41 -20 -99
-26 -128 -5 -29 -11 -56 -14 -60 -3 -5 -10 -35 -15 -68 -11 -65 -46 -237 -60
-299 -6 -22 -17 -76 -26 -120 -9 -44 -23 -109 -30 -145 -8 -36 -18 -87 -24
-115 -5 -27 -16 -81 -24 -120 -14 -63 -30 -138 -59 -280 -5 -27 -16 -77 -23
-110 -8 -33 -19 -87 -25 -120 -6 -33 -18 -85 -26 -116 -8 -30 -14 -65 -14 -76
0 -12 -7 -24 -16 -27 -9 -3 -163 -6 -344 -6 -262 0 -329 3 -333 13 -3 7 -1 33
4 58 5 24 13 64 18 89 11 59 47 227 65 310 8 36 17 79 20 95 2 17 16 84 30
150 53 245 58 271 66 322 5 28 11 56 14 61 3 6 -1 13 -10 16 -9 3 -193 6 -409
6 -366 0 -395 -1 -403 -17 -5 -10 -17 -58 -26 -108 -10 -49 -23 -117 -31 -150
-7 -33 -18 -87 -25 -120 -6 -33 -18 -87 -25 -120 -8 -33 -19 -87 -25 -120 -7
-33 -18 -87 -25 -120 -7 -33 -18 -87 -25 -120 -7 -33 -19 -86 -26 -118 -8 -32
-14 -69 -14 -82 0 -14 -9 -29 -19 -35 -13 -6 -140 -10 -346 -10 -292 0 -326 2
-332 16 -3 9 1 46 10 83 8 36 21 93 27 126 7 33 19 89 26 125 8 36 18 85 23
110 23 110 62 298 81 385 4 22 16 78 25 125 17 88 23 117 49 235 8 39 22 106
31 150 29 140 34 169 49 235 7 36 19 92 26 125 6 33 16 80 22 105 6 25 14 65
19 90 4 25 26 133 49 240 23 107 45 218 50 245 5 28 14 66 19 85 6 19 11 46
11 60 0 14 7 36 16 48 l15 22 332 -2 332 -3 -1 -46z"/>
</g>
</svg>
